<svg width="152" height="29" viewBox="0 0 152 29" fill="none" xmlns="http://www.w3.org/2000/svg">
<path d="M33.2896 5.74761C32.8986 4.27249 31.7466 3.11077 30.2835 2.71651C27.6322 2 17 2 17 2C17 2 6.36792 2 3.71649 2.71651C2.25342 3.11077 1.10114 4.27249 0.71038 5.74761C0 8.42133 0 14 0 14C0 14 0 19.5784 0.71038 22.2524C1.10114 23.7277 2.25342 24.8891 3.71635 25.2838C6.36777 26 16.9999 26 16.9999 26C16.9999 26 27.6321 26 30.2834 25.2838C31.7464 24.8892 32.8984 23.7277 33.2895 22.2525C34 19.5785 34 14.0001 34 14.0001C34 14.0001 34 8.42147 33.2895 5.74776" fill="#FF0000"/>
<path d="M13.5225 19.065L22.4088 14.0003L13.5225 8.93506V19.065Z" fill="white"/>
<path d="M44.8418 20.5586V12.4336H46.6582V23H44.9297L44.8418 20.5586ZM45.1836 18.332L45.9355 18.3125C45.9355 19.0156 45.8607 19.6667 45.7109 20.2656C45.5677 20.8581 45.3333 21.3724 45.0078 21.8086C44.6823 22.2448 44.2559 22.5866 43.7285 22.834C43.2012 23.0749 42.5599 23.1953 41.8047 23.1953C41.2904 23.1953 40.8184 23.1204 40.3887 22.9707C39.9655 22.821 39.6009 22.5898 39.2949 22.2773C38.9889 21.9648 38.7513 21.5579 38.582 21.0566C38.4193 20.5553 38.3379 19.9531 38.3379 19.25V12.4336H40.1445V19.2695C40.1445 19.7448 40.1966 20.1387 40.3008 20.4512C40.4115 20.7572 40.5579 21.0013 40.7402 21.1836C40.929 21.3594 41.1374 21.4831 41.3652 21.5547C41.5996 21.6263 41.8405 21.6621 42.0879 21.6621C42.8561 21.6621 43.4648 21.5156 43.9141 21.2227C44.3633 20.9232 44.6855 20.5228 44.8809 20.0215C45.0827 19.5137 45.1836 18.9505 45.1836 18.332ZM49.0188 14.6895V23H47.2121V12.4336H48.9211L49.0188 14.6895ZM48.5891 17.3164L47.8371 17.2871C47.8436 16.5645 47.951 15.8971 48.1594 15.2852C48.3677 14.6667 48.6607 14.1296 49.0383 13.6738C49.4159 13.2181 49.8651 12.8665 50.3859 12.6191C50.9133 12.3652 51.496 12.2383 52.134 12.2383C52.6548 12.2383 53.1236 12.3099 53.5402 12.4531C53.9569 12.5898 54.3117 12.8112 54.6047 13.1172C54.9042 13.4232 55.132 13.8203 55.2883 14.3086C55.4445 14.7904 55.5227 15.3796 55.5227 16.0762V23H53.7063V16.0566C53.7063 15.5033 53.6249 15.0605 53.4621 14.7285C53.2993 14.39 53.0617 14.1458 52.7492 13.9961C52.4367 13.8398 52.0526 13.7617 51.5969 13.7617C51.1477 13.7617 50.7375 13.8561 50.3664 14.0449C50.0018 14.2337 49.6861 14.4941 49.4191 14.8262C49.1587 15.1582 48.9536 15.5391 48.8039 15.9688C48.6607 16.3919 48.5891 16.8411 48.5891 17.3164ZM58.7621 23H56.9555V11.3203C56.9555 10.5586 57.0922 9.91732 57.3656 9.39648C57.6456 8.86914 58.046 8.47201 58.5668 8.20508C59.0876 7.93164 59.7061 7.79492 60.4223 7.79492C60.6306 7.79492 60.8389 7.80794 61.0473 7.83398C61.2621 7.86003 61.4704 7.89909 61.6723 7.95117L61.5746 9.42578C61.4379 9.39323 61.2816 9.37044 61.1059 9.35742C60.9366 9.3444 60.7673 9.33789 60.598 9.33789C60.2139 9.33789 59.8819 9.41602 59.602 9.57227C59.3285 9.72201 59.1202 9.94336 58.977 10.2363C58.8337 10.5293 58.7621 10.8906 58.7621 11.3203V23ZM61.0082 12.4336V13.8203H55.2855V12.4336H61.0082ZM60.3414 17.834V17.6094C60.3414 16.8477 60.4521 16.1413 60.6734 15.4902C60.8948 14.8327 61.2138 14.263 61.6305 13.7812C62.0471 13.293 62.5517 12.9154 63.1441 12.6484C63.7366 12.375 64.4007 12.2383 65.1363 12.2383C65.8785 12.2383 66.5458 12.375 67.1383 12.6484C67.7372 12.9154 68.2451 13.293 68.6617 13.7812C69.0849 14.263 69.4072 14.8327 69.6285 15.4902C69.8499 16.1413 69.9605 16.8477 69.9605 17.6094V17.834C69.9605 18.5957 69.8499 19.3021 69.6285 19.9531C69.4072 20.6042 69.0849 21.1738 68.6617 21.6621C68.2451 22.1439 67.7405 22.5215 67.148 22.7949C66.5621 23.0618 65.898 23.1953 65.1559 23.1953C64.4137 23.1953 63.7464 23.0618 63.1539 22.7949C62.5615 22.5215 62.0536 22.1439 61.6305 21.6621C61.2138 21.1738 60.8948 20.6042 60.6734 19.9531C60.4521 19.3021 60.3414 18.5957 60.3414 17.834ZM62.148 17.6094V17.834C62.148 18.3613 62.2099 18.8594 62.3336 19.3281C62.4573 19.7904 62.6428 20.2005 62.8902 20.5586C63.1441 20.9167 63.4599 21.1999 63.8375 21.4082C64.2151 21.61 64.6546 21.7109 65.1559 21.7109C65.6507 21.7109 66.0836 21.61 66.4547 21.4082C66.8323 21.1999 67.1448 20.9167 67.3922 20.5586C67.6396 20.2005 67.8251 19.7904 67.9488 19.3281C68.079 18.8594 68.1441 18.3613 68.1441 17.834V17.6094C68.1441 17.0885 68.079 16.597 67.9488 16.1348C67.8251 15.666 67.6363 15.2526 67.3824 14.8945C67.135 14.5299 66.8225 14.2435 66.4449 14.0352C66.0738 13.8268 65.6376 13.7227 65.1363 13.7227C64.6415 13.7227 64.2053 13.8268 63.8277 14.0352C63.4566 14.2435 63.1441 14.5299 62.8902 14.8945C62.6428 15.2526 62.4573 15.666 62.3336 16.1348C62.2099 16.597 62.148 17.0885 62.148 17.6094ZM71.8328 14.0938V23H70.0262V12.4336H71.784L71.8328 14.0938ZM75.1336 12.375L75.1238 14.0547C74.9741 14.0221 74.8309 14.0026 74.6941 13.9961C74.5639 13.9831 74.4142 13.9766 74.2449 13.9766C73.8283 13.9766 73.4604 14.0417 73.1414 14.1719C72.8224 14.3021 72.5522 14.4844 72.3309 14.7188C72.1095 14.9531 71.9337 15.2331 71.8035 15.5586C71.6798 15.8776 71.5984 16.2292 71.5594 16.6133L71.0516 16.9062C71.0516 16.2682 71.1134 15.6693 71.2371 15.1094C71.3673 14.5495 71.5659 14.0547 71.8328 13.625C72.0997 13.1888 72.4383 12.8503 72.8484 12.6094C73.2651 12.362 73.7599 12.2383 74.3328 12.2383C74.463 12.2383 74.6128 12.2546 74.782 12.2871C74.9513 12.3132 75.0685 12.3424 75.1336 12.375ZM81.2539 12.4336H82.8945V22.7754C82.8945 23.7064 82.7057 24.5007 82.3281 25.1582C81.9505 25.8158 81.4232 26.3138 80.7461 26.6523C80.0755 26.9974 79.3008 27.1699 78.4219 27.1699C78.0573 27.1699 77.6276 27.1113 77.1328 26.9941C76.6445 26.8835 76.1628 26.6914 75.6875 26.418C75.2188 26.151 74.8249 25.7897 74.5059 25.334L75.4531 24.2598C75.8958 24.7936 76.3581 25.1647 76.8398 25.373C77.3281 25.5814 77.8099 25.6855 78.2852 25.6855C78.8581 25.6855 79.3529 25.5781 79.7695 25.3633C80.1862 25.1484 80.5085 24.8294 80.7363 24.4062C80.9707 23.9896 81.0879 23.4753 81.0879 22.8633V14.7578L81.2539 12.4336ZM73.9785 17.834V17.6289C73.9785 16.8216 74.0729 16.0892 74.2617 15.4316C74.457 14.7676 74.7337 14.1979 75.0918 13.7227C75.4564 13.2474 75.8958 12.8828 76.4102 12.6289C76.9245 12.3685 77.5039 12.2383 78.1484 12.2383C78.8125 12.2383 79.3919 12.3555 79.8867 12.5898C80.388 12.8177 80.8112 13.153 81.1562 13.5957C81.5078 14.0319 81.7845 14.5592 81.9863 15.1777C82.1882 15.7962 82.3281 16.4961 82.4062 17.2773V18.1758C82.3346 18.9505 82.1947 19.6471 81.9863 20.2656C81.7845 20.8841 81.5078 21.4115 81.1562 21.8477C80.8112 22.2839 80.388 22.6191 79.8867 22.8535C79.3854 23.0814 78.7995 23.1953 78.1289 23.1953C77.4974 23.1953 76.9245 23.0618 76.4102 22.7949C75.9023 22.528 75.4661 22.1536 75.1016 21.6719C74.737 21.1901 74.457 20.6237 74.2617 19.9727C74.0729 19.3151 73.9785 18.6022 73.9785 17.834ZM75.7852 17.6289V17.834C75.7852 18.3613 75.8372 18.8561 75.9414 19.3184C76.0521 19.7806 76.2181 20.1875 76.4395 20.5391C76.6673 20.8906 76.957 21.1673 77.3086 21.3691C77.6602 21.5645 78.0801 21.6621 78.5684 21.6621C79.1673 21.6621 79.6621 21.5352 80.0527 21.2812C80.4434 21.0273 80.7526 20.6921 80.9805 20.2754C81.2148 19.8587 81.3971 19.4062 81.5273 18.918V16.5645C81.4557 16.2064 81.3451 15.8613 81.1953 15.5293C81.0521 15.1908 80.8633 14.8913 80.6289 14.6309C80.401 14.3639 80.1178 14.1523 79.7793 13.9961C79.4408 13.8398 79.0436 13.7617 78.5879 13.7617C78.0931 13.7617 77.6667 13.8659 77.3086 14.0742C76.957 14.276 76.6673 14.556 76.4395 14.9141C76.2181 15.2656 76.0521 15.6758 75.9414 16.1445C75.8372 16.6068 75.7852 17.1016 75.7852 17.6289ZM87.8234 23.1953C87.0878 23.1953 86.4204 23.0716 85.8215 22.8242C85.229 22.5703 84.718 22.2155 84.2883 21.7598C83.8651 21.304 83.5396 20.7637 83.3117 20.1387C83.0839 19.5137 82.9699 18.8301 82.9699 18.0879V17.6777C82.9699 16.8184 83.0969 16.0534 83.3508 15.3828C83.6047 14.7057 83.9497 14.1328 84.3859 13.6641C84.8221 13.1953 85.3169 12.8405 85.8703 12.5996C86.4237 12.3587 86.9966 12.2383 87.5891 12.2383C88.3443 12.2383 88.9953 12.3685 89.5422 12.6289C90.0956 12.8893 90.548 13.2539 90.8996 13.7227C91.2512 14.1849 91.5116 14.7318 91.6809 15.3633C91.8501 15.9883 91.9348 16.6719 91.9348 17.4141V18.2246H84.0441V16.75H90.1281V16.6133C90.1021 16.1445 90.0044 15.6888 89.8352 15.2461C89.6724 14.8034 89.412 14.4388 89.0539 14.1523C88.6958 13.8659 88.2076 13.7227 87.5891 13.7227C87.1789 13.7227 86.8013 13.8105 86.4562 13.9863C86.1112 14.1556 85.815 14.4095 85.5676 14.748C85.3202 15.0866 85.1281 15.5 84.9914 15.9883C84.8547 16.4766 84.7863 17.0397 84.7863 17.6777V18.0879C84.7863 18.5892 84.8547 19.0612 84.9914 19.5039C85.1346 19.9401 85.3397 20.3242 85.6066 20.6562C85.8801 20.9883 86.2089 21.2487 86.593 21.4375C86.9836 21.6263 87.4263 21.7207 87.9211 21.7207C88.5591 21.7207 89.0995 21.5905 89.5422 21.3301C89.9849 21.0697 90.3723 20.7214 90.7043 20.2852L91.798 21.1543C91.5702 21.4993 91.2805 21.8281 90.9289 22.1406C90.5773 22.4531 90.1444 22.707 89.6301 22.9023C89.1223 23.0977 88.5201 23.1953 87.8234 23.1953ZM98.5043 20.9492V8H100.321V23H98.6605L98.5043 20.9492ZM91.3949 17.834V17.6289C91.3949 16.8216 91.4926 16.0892 91.6879 15.4316C91.8897 14.7676 92.1729 14.1979 92.5375 13.7227C92.9086 13.2474 93.348 12.8828 93.8559 12.6289C94.3702 12.3685 94.9431 12.2383 95.5746 12.2383C96.2387 12.2383 96.8181 12.3555 97.3129 12.5898C97.8142 12.8177 98.2374 13.153 98.5824 13.5957C98.934 14.0319 99.2107 14.5592 99.4125 15.1777C99.6143 15.7962 99.7543 16.4961 99.8324 17.2773V18.1758C99.7608 18.9505 99.6208 19.6471 99.4125 20.2656C99.2107 20.8841 98.934 21.4115 98.5824 21.8477C98.2374 22.2839 97.8142 22.6191 97.3129 22.8535C96.8116 23.0814 96.2256 23.1953 95.5551 23.1953C94.9366 23.1953 94.3702 23.0618 93.8559 22.7949C93.348 22.528 92.9086 22.1536 92.5375 21.6719C92.1729 21.1901 91.8897 20.6237 91.6879 19.9727C91.4926 19.3151 91.3949 18.6022 91.3949 17.834ZM93.2113 17.6289V17.834C93.2113 18.3613 93.2634 18.8561 93.3676 19.3184C93.4783 19.7806 93.6475 20.1875 93.8754 20.5391C94.1033 20.8906 94.393 21.1673 94.7445 21.3691C95.0961 21.5645 95.516 21.6621 96.0043 21.6621C96.6033 21.6621 97.0948 21.5352 97.4789 21.2812C97.8695 21.0273 98.182 20.6921 98.4164 20.2754C98.6508 19.8587 98.8331 19.4062 98.9633 18.918V16.5645C98.8852 16.2064 98.7712 15.8613 98.6215 15.5293C98.4783 15.1908 98.2895 14.8913 98.0551 14.6309C97.8272 14.3639 97.544 14.1523 97.2055 13.9961C96.8734 13.8398 96.4796 13.7617 96.0238 13.7617C95.529 13.7617 95.1026 13.8659 94.7445 14.0742C94.393 14.276 94.1033 14.556 93.8754 14.9141C93.6475 15.2656 93.4783 15.6758 93.3676 16.1445C93.2634 16.6068 93.2113 17.1016 93.2113 17.6289ZM100.409 8.58807V5.54545H114.744V8.58807H109.4V23H105.752V8.58807H100.409ZM121.49 17.4261V9.90909H125.121V23H121.635V20.6222H121.499C121.203 21.3892 120.712 22.0057 120.024 22.4716C119.342 22.9375 118.51 23.1705 117.527 23.1705C116.652 23.1705 115.882 22.9716 115.217 22.5739C114.552 22.1761 114.033 21.6108 113.658 20.8778C113.288 20.1449 113.101 19.267 113.095 18.2443V9.90909H116.726V17.5966C116.731 18.3693 116.939 18.9801 117.348 19.429C117.757 19.8778 118.305 20.1023 118.993 20.1023C119.43 20.1023 119.839 20.0028 120.22 19.804C120.601 19.5994 120.908 19.2983 121.141 18.9006C121.379 18.5028 121.496 18.0114 121.49 17.4261ZM125.933 23V5.54545H129.564V12.108H129.674C129.834 11.7557 130.064 11.3977 130.365 11.0341C130.672 10.6648 131.069 10.358 131.558 10.1136C132.052 9.86364 132.666 9.73864 133.399 9.73864C134.353 9.73864 135.234 9.98864 136.041 10.4886C136.848 10.983 137.493 11.7301 137.976 12.7301C138.459 13.7244 138.7 14.9716 138.7 16.4716C138.7 17.9318 138.464 19.1648 137.993 20.1705C137.527 21.1705 136.89 21.929 136.084 22.446C135.282 22.9574 134.385 23.2131 133.39 23.2131C132.686 23.2131 132.086 23.0966 131.592 22.8636C131.103 22.6307 130.703 22.3381 130.39 21.9858C130.078 21.6278 129.839 21.267 129.674 20.9034H129.513V23H125.933ZM129.487 16.4545C129.487 17.233 129.595 17.9119 129.811 18.4915C130.027 19.071 130.339 19.5227 130.748 19.8466C131.157 20.1648 131.655 20.3239 132.24 20.3239C132.831 20.3239 133.331 20.1619 133.74 19.8381C134.149 19.5085 134.459 19.054 134.669 18.4744C134.885 17.8892 134.993 17.2159 134.993 16.4545C134.993 15.6989 134.888 15.0341 134.677 14.4602C134.467 13.8864 134.157 13.4375 133.748 13.1136C133.339 12.7898 132.836 12.6278 132.24 12.6278C131.649 12.6278 131.149 12.7841 130.74 13.0966C130.336 13.4091 130.027 13.8523 129.811 14.4261C129.595 15 129.487 15.6761 129.487 16.4545ZM144.929 23.2557C143.582 23.2557 142.423 22.983 141.451 22.4375C140.485 21.8864 139.741 21.108 139.218 20.1023C138.696 19.0909 138.434 17.8949 138.434 16.5142C138.434 15.1676 138.696 13.9858 139.218 12.9688C139.741 11.9517 140.477 11.1591 141.426 10.5909C142.38 10.0227 143.5 9.73864 144.784 9.73864C145.647 9.73864 146.451 9.87784 147.196 10.1562C147.946 10.429 148.599 10.8409 149.156 11.392C149.718 11.9432 150.156 12.6364 150.468 13.4716C150.781 14.3011 150.937 15.2727 150.937 16.3864V17.3835H139.883V15.1335H147.519C147.519 14.6108 147.406 14.1477 147.179 13.7443C146.951 13.3409 146.636 13.0256 146.232 12.7983C145.835 12.5653 145.372 12.4489 144.843 12.4489C144.292 12.4489 143.804 12.5767 143.377 12.8324C142.957 13.0824 142.627 13.4205 142.389 13.8466C142.15 14.267 142.028 14.7358 142.022 15.2528V17.392C142.022 18.0398 142.142 18.5994 142.38 19.071C142.625 19.5426 142.968 19.9062 143.411 20.1619C143.855 20.4176 144.38 20.5455 144.988 20.5455C145.392 20.5455 145.761 20.4886 146.096 20.375C146.431 20.2614 146.718 20.0909 146.957 19.8636C147.196 19.6364 147.377 19.358 147.502 19.0284L150.86 19.25C150.69 20.0568 150.34 20.7614 149.812 21.3636C149.289 21.9602 148.613 22.4261 147.784 22.7614C146.96 23.0909 146.008 23.2557 144.929 23.2557Z" fill="black"/>
</svg>
